<svg viewBox="0 9 179.8 72" xmlns="http://www.w3.org/2000/svg"><path d="m25.8 12.9h20.5v20.5h-20.5z" fill="#0092c3"/><path d="m3.7 12.9h20.5v20.5h-20.5z" fill="#0092c3"/><path d="m3.7 35h20.5v20.5h-20.5z" fill="#f08119"/><path d="m3.7 57.1h20.5v20.5h-20.5z" fill="#333"/><path d="m25.8 35.1v20.4l12.9-10.2z" fill="#f08119"/><g fill="#333"><path d="m65.7 65.4h-7.7v12.2h-4.7v-27h15.4v4.1h-10.7v6.5h7.7z"/><path d="m82 77.6-.3-2.6h-.2c-.7.9-1.7 1.7-3 2.2-1.3.6-2.6.8-3.9.8-1.7 0-3.1-.5-4-1.5-1-1-1.5-2.3-1.5-3.9 0-1.1.2-2.1.7-3s1.2-1.6 2.1-2.2 2-1.1 3.2-1.4c1.3-.3 2.7-.5 4.2-.5h1.8v-.6c0-1.1-.3-1.8-1-2.3s-1.8-.7-3.3-.7c-2 0-3.8.4-5.4 1.3l-.9-3.4c1.8-1.1 4-1.6 6.6-1.6 2.7 0 4.8.6 6.2 1.7.7.5 1.2 1.2 1.6 2s.6 1.8.6 2.9v12.8zm-5.6-3.1c.9 0 1.7-.2 2.6-.6s1.6-1 2.1-1.7v-3.7h-.8c-2.2 0-3.9.3-4.9.9s-1.5 1.5-1.5 2.7c.1 1.6.9 2.4 2.5 2.4z"/><path d="m103.2 77.6v-12.4c0-2.2-.9-3.3-2.7-3.3-.4 0-.9.1-1.4.2-.5.2-1 .4-1.5.7s-.9.7-1.3 1.2-.7 1-.8 1.6v12h-4.5v-18.8h3.5l.2 2.8h.2c.5-1.1 1.4-2 2.6-2.6s2.4-.8 3.8-.8c1.3 0 2.4.3 3.5.8 1 .5 1.8 1.4 2.3 2.6.5-1.1 1.4-2 2.6-2.5 1.2-.6 2.4-.8 3.8-.8.9 0 1.7.1 2.5.3s1.5.6 2 1.1c.6.5 1 1.2 1.4 2 .3.8.5 1.9.5 3.1v12.8h-4.5v-12.4c0-2.2-.9-3.3-2.7-3.3-.4 0-.9.1-1.4.2-.5.2-1 .4-1.5.7s-.9.7-1.3 1.2-.7 1-.8 1.6v12z"/><path d="m133.5 58.2c1.7 0 3.1.3 4.3.8 1.2.6 2.2 1.3 3 2.2s1.3 2 1.7 3.2.6 2.5.6 3.8-.2 2.6-.6 3.8-.9 2.2-1.7 3.1-1.8 1.6-2.9 2.1c-1.2.5-2.6.8-4.2.8-1.7 0-3.1-.3-4.3-.8s-2.2-1.3-3-2.2-1.4-2-1.8-3.2-.6-2.5-.6-3.8.2-2.6.6-3.8 1-2.2 1.7-3.2c.8-.9 1.8-1.6 3-2.2 1.2-.3 2.6-.6 4.2-.6zm.1 16.5c.8 0 1.5-.2 2.1-.5s1.1-.8 1.5-1.4.7-1.3.8-2c.2-.8.3-1.6.3-2.4 0-.9-.1-1.7-.3-2.5s-.5-1.5-.9-2.1-.9-1.1-1.5-1.5-1.3-.6-2.2-.6c-.8 0-1.5.2-2 .5-.6.3-1 .8-1.4 1.4s-.6 1.2-.8 2-.3 1.6-.3 2.4c0 .9.1 1.7.3 2.5s.5 1.5.9 2.1.9 1.1 1.5 1.5c.5.4 1.2.6 2 .6z"/><path d="m157.9 78.1c-1.5 0-2.7-.3-3.7-.9s-1.8-1.3-2.6-2.2h-.2l-.3 2.6h-3.6v-30.2h4.5v13.3c.6-.8 1.5-1.4 2.5-1.8s2.2-.7 3.5-.7c1.4 0 2.7.3 3.7.8 1.1.5 1.9 1.3 2.7 2.2.7.9 1.2 1.9 1.6 3.1.3 1.2.5 2.4.5 3.7 0 1.4-.2 2.8-.6 4s-1 2.3-1.7 3.2-1.7 1.6-2.7 2.1c-1.1.5-2.3.8-3.6.8zm-.6-3.4c.8 0 1.5-.2 2.1-.6s1.1-.9 1.5-1.5.7-1.3.9-2.1.3-1.6.3-2.4-.1-1.7-.3-2.4c-.2-.8-.5-1.5-.9-2.1s-1-1.1-1.6-1.4-1.4-.5-2.2-.5-1.6.2-2.4.6-1.7 1.1-2.5 2.1v7.8c.3.4.7.8 1.1 1.1s.9.6 1.4.8 1 .4 1.5.5.7.1 1.1.1z"/><path d="m170.4 52.8c0-.4.1-.7.2-1.1s.4-.7.6-1c.3-.3.6-.5.9-.7s.7-.2 1.1-.2.7.1 1.1.2c.4.2.7.4 1 .7s.5.6.7 1 .2.7.2 1.1-.1.8-.2 1.1c-.2.3-.4.6-.7.9s-.6.5-1 .6-.7.2-1.1.2c-.8 0-1.5-.3-2-.9-.6-.4-.8-1.1-.8-1.9zm5.1 24.8h-4.5v-18.8h4.5z"/></g></svg>