<svg enable-background="new 0 0 256 256" viewBox="0 0 256 256" xmlns="http://www.w3.org/2000/svg"><g fill="#ffc600"><path d="m140.1 129.6v-6.5c7.8 0 13.9-2.2 18.2-6.6 4.7-4.9 6.1-11.3 6.6-15.1h-11.9v-6.5h18.5l.1 3.1c0 .6.4 13.7-8.6 22.9-5.6 5.8-13.2 8.7-22.9 8.7zm-26.1 0v-6.5c-7.8 0-13.9-2.2-18.2-6.6-4.7-4.9-6.1-11.3-6.6-15.1h11.9v-6.5h-18.4l-.1 3.1c0 .6-.4 13.7 8.6 22.9 5.4 5.8 13.1 8.7 22.8 8.7zm5.3 0h14.3v26.8h-14.3zm38-27.2v-7.5h-60.7v7.5s-1.9 40.5 30.3 40.5c32.3 0 30.4-40.5 30.4-40.5z"/><path d="m126.9 95h-33.7s-2.1 48 33.7 48z"/><path d="m126.9 94.9h33.7s2.1 48-33.7 48z"/><path d="m150.5 177.7c0-7.3-10.6-13.3-23.6-13.3s-23.6 6-23.6 13.3z"/><path d="m139.8 168.2c0-8.9-5.8-16.1-12.9-16.1s-12.9 7.2-12.9 16.1z"/></g></svg>